<svg id="Layer_1" enable-background="new 0 0 510.355 510.355" height="512" viewBox="0 0 510.355 510.355" width="512" xmlns="http://www.w3.org/2000/svg"><g><g><path d="m375.266 478.177c-1.954 0-3.913-.381-5.764-1.152l-114.324-47.585-114.325 47.585c-4.314 1.795-9.218 1.478-13.264-.858s-6.773-6.424-7.375-11.058l-15.952-122.801-98.373-75.215c-3.712-2.838-5.889-7.243-5.889-11.916s2.177-9.078 5.889-11.916l98.373-75.214 15.952-122.801c.602-4.634 3.329-8.722 7.375-11.058 4.046-2.337 8.951-2.654 13.264-.858l114.325 47.585 114.324-47.585c4.313-1.796 9.218-1.479 13.264.858 4.046 2.336 6.773 6.424 7.375 11.058l15.952 122.801 98.373 75.215c3.712 2.838 5.889 7.244 5.889 11.916s-2.177 9.078-5.889 11.916l-98.373 75.214-15.952 122.801c-.602 4.634-3.329 8.722-7.375 11.058-2.31 1.334-4.9 2.01-7.5 2.01z" fill="#fdbf00"/></g><path d="m504.466 243.262-98.373-75.215-15.951-122.801c-.602-4.634-3.329-8.722-7.375-11.058-4.046-2.337-8.951-2.654-13.264-.858l-114.325 47.585v348.526l114.324 47.585c1.851.771 3.81 1.152 5.764 1.152 2.6 0 5.19-.676 7.5-2.01 4.046-2.336 6.773-6.424 7.375-11.058l15.952-122.801 98.373-75.214c3.712-2.838 5.889-7.244 5.889-11.916s-2.177-9.079-5.889-11.917z" fill="#ff8856"/><g><path d="m255.178 510.355c-4.672 0-9.078-2.177-11.916-5.889l-75.215-98.373-122.801-15.951c-4.634-.602-8.722-3.329-11.058-7.375s-2.653-8.95-.858-13.264l47.585-114.325-47.585-114.325c-1.795-4.314-1.479-9.218.858-13.264 2.336-4.046 6.424-6.773 11.058-7.375l122.801-15.952 75.215-98.373c2.838-3.712 7.243-5.889 11.916-5.889s9.078 2.177 11.916 5.889l75.215 98.373 122.801 15.952c4.634.602 8.722 3.329 11.058 7.375s2.653 8.95.858 13.264l-47.586 114.325 47.585 114.325c1.795 4.314 1.479 9.218-.858 13.264-2.336 4.046-6.424 6.773-11.058 7.375l-122.801 15.952-75.215 98.373c-2.837 3.711-7.243 5.888-11.915 5.888z" fill="#ffde46"/></g><path d="m429.44 255.178 47.585-114.325c1.795-4.314 1.479-9.218-.858-13.264-2.336-4.046-6.424-6.773-11.058-7.375l-122.801-15.952-75.214-98.373c-2.838-3.712-7.244-5.889-11.916-5.889v510.355c4.672 0 9.078-2.177 11.916-5.889l75.215-98.373 122.801-15.952c4.634-.602 8.722-3.329 11.058-7.375s2.653-8.95.858-13.264z" fill="#ffcd00"/><g><path d="m255.178 363.678c-59.827 0-108.5-48.673-108.5-108.5s48.673-108.5 108.5-108.5 108.5 48.673 108.5 108.5-48.673 108.5-108.5 108.5z" fill="#fff36c"/></g><path d="m255.178 146.677v217c59.827 0 108.5-48.673 108.5-108.5s-48.673-108.5-108.5-108.5z" fill="#ffde46"/></g></svg>